#!OML:ASF F:\VICON\USERDATA\INSTALL\rory3\rory3.ASF
:FULLY-SPECIFIED
:DEGREES
77
root 0.269829281500791 17.649994772624975 27.54507039454228 -1.598278480560521 0.09806140789661844 1.8137954771917584
lfemur 10.682193750969256 -2.2950703976490248 -25.20279814474927
ltibia 17.121998173536113
lfoot -17.124986002966704 -1.4572150745541148
ltoes -5.936255984015858
rfemur -27.124490841451355 7.537942655510044 17.551340549979493
rtibia 18.86153796449128
rfoot -8.491517786936933 -12.532621166250266
rtoes -5.045314914180311
lowerback 9.616016143228084 -0.6346678855779018 -3.552783365199354
upperback 0.6421465084842738 -1.3309709590746313 0.6612631774059403
thorax -4.8078820517241345 -0.5805310584102121 3.276774363362354
lowerneck -16.12120615784793 -2.564431157720884 -2.483664314025011
upperneck 20.927073854862286 -3.161158934888467 1.2061411331362213
head 9.248167843006662 -1.5604510999055619 0.35178170223882105
lclavicle -1.3865119045265434e-15 -1.842848811620872e-15
lhumerus -25.013349716796995 -0.6260941523541548 80.31783071636642
lradius 34.83185020788149
lwrist 9.415305629261999
lhand -28.958331189705536 22.794674887575656
lfingers 7.125019999999999
lthumb -2.6588542897140646 52.41571735200643
rclavicle -1.3853494081192266e-15 -1.839922213115185e-15
rhumerus -34.39763615083166 -25.84025780374124 -71.98259137008068
rradius 21.08090563227286
rwrist 8.279585660613808
rhand -17.600301707957268 23.062297063833267
rfingers 7.125019999999999
rthumb 8.651829797320744 -6.696050979467382
78
root 0.1949944398567956 17.601141216176114 28.188339494688982 -1.7461901276935503 0.09449512531561721 0.7358601387591306
lfemur 11.07759948820071 -3.0642490468318226 -23.938708422589226
ltibia 20.595912336106757
lfoot -16.700120128028463 -2.519093261198446
ltoes -8.158334975777667
rfemur -27.038113158168706 5.813833791442315 19.93467164105043
rtibia 20.75496543660628
rfoot -7.810983174843518 -10.148717002484826
rtoes -3.307159651850373
lowerback 9.886307960207766 -0.6467549597361208 -2.6883039783074385
upperback 0.8090716131606839 -1.2176911836998638 1.0958592483116742
thorax -4.8043346130802975 -0.5451304771990098 3.1534207880354916
lowerneck -16.118072394111763 -2.5849405593089214 -2.6036390115292747
upperneck 20.71078114804234 -3.1632610391447726 1.093756075601573
head 9.16277295228288 -1.5638702874098287 0.33870033256437004
lclavicle -1.3873909911162166e-15 -1.843665552794667e-15
lhumerus -25.28887712532176 -0.09514351234354335 80.24081881553579
lradius 35.475906589953745
lwrist 9.595049385329435
lhand -30.324857463984433 21.67732968198756
lfingers 7.125019999999999
lthumb -3.6675992464801097 51.94972775351014
rclavicle -1.3820791798136451e-15 -1.836853192799802e-15
rhumerus -35.106621810393804 -26.997058562104044 -70.95871839895744
rradius 20.39559650631063
rwrist 9.736577460738955
rhand -17.738527467722673 22.987766969043225
rfingers 7.125019999999999
rthumb 8.527747929049934 -6.758084003085272
79
root 0.13152449974630664 17.543320646066537 28.887456189259133 -1.9550897293311698 0.790449879046655 0.811466715129483
lfemur 11.569203304850246 -3.583569925206781 -23.741684677689847
ltibia 23.974992166237087
lfoot -17.078828424280744 -4.357540154858491
ltoes -15.637572957092896
rfemur -27.550997271956874 3.997680349155374 20.857128022572695
rtibia 26.266372422202235
rfoot -7.1790967160790276 -8.456423389952484
rtoes -1.8829589082198623
lowerback 9.72316087576674 -0.8770502040910628 -2.9616192499014127
upperback 0.858801564626571 -1.5018576949596945 1.0848081025232768
thorax -4.645689823802693 -0.668331786546732 3.346964914224266
lowerneck -16.121792675243054 -2.5079805075905353 -2.543390073773514
upperneck 20.80503323658917 -2.9829748494991883 0.8976190167185099
head 9.206788042950073 -1.498778203117227 0.28086602458287696
lclavicle -1.3870884615220141e-15 -1.8433839007866143e-15
lhumerus -26.097446959671842 0.7178973254432361 80.22273322241627
lradius 35.794653876531555
lwrist 9.209857354902228
lhand -30.917273335525664 21.27986111656065
lfingers 7.125019999999999
lthumb -4.075691233851626 51.660927489657745
rclavicle -1.3835606982623653e-15 -1.8383745910347373e-15
rhumerus -35.8878947473229 -28.55938642626018 -69.54080888343755
rradius 19.427642683020316
rwrist 11.430889768384755
rhand -17.89653805093754 22.80326255053798
rfingers 7.125019999999999
rthumb 8.441614000354958 -6.8504231310401416
80
root 0.07035603326970896 17.64732497642812 29.516184401234753 -1.983874599691456 1.619662212960286 -0.015600823115037077
lfemur 10.577665960635303 -4.3219772759592665 -22.419204397919366
ltibia 28.93699707767973
lfoot -11.473712221004908 -8.133046342894017
ltoes -18.4972126520206
rfemur -26.413080263376365 5.075507568783068 21.545079498845496
rtibia 28.266357104934556
rfoot -5.764667706876637 -8.201000053371086
rtoes -1.184386360641894
lowerback 9.390058179185912 -1.2325110544566023 -2.2659616316936497
upperback 0.5707328926897516 -1.8786179846856768 1.3896581516184312
thorax -4.604565450804729 -0.8810113318061963 3.3319073685212706
lowerneck -15.960193086531932 -2.448282531116675 -2.507597672959806
upperneck 21.243514270942843 -2.8433692086312585 0.5899183132800138
head 9.338621632640619 -1.4567597085592587 0.18575506112415247
lclavicle -1.3874463366364298e-15 -1.8437162317620378e-15
lhumerus -27.383101200324838 1.5519711497226545 80.38296770215808
lradius 35.40104259330293
lwrist 8.339154490388367
lhand -30.843162169779198 21.952700059255985
lfingers 7.125019999999999
lthumb -4.121954441404275 52.41527860805226
rclavicle -1.3826205070882983e-15 -1.837547113461474e-15
rhumerus -36.671626697197844 -29.25529363225158 -68.36330117797435
rradius 18.67889168791488
rwrist 13.053463803828947
rhand -18.114107040561084 22.62252265506292
rfingers 7.125019999999999
rthumb 8.303002444261429 -6.797688657576932
